{"title":"The Alamo 1960 DVDrip English Klam","uid":6399473,"size":2208614546,"categoryP":"video","categoryS":"movies","magnet":"?xt=urn:btih:34d51f0bb6219dfffd9c5a1f5c8fb4aa62f4dd91&amp;dn=The+Alamo+1960+DVDrip+English+Klam&amp;tr=udp%3A%2F%2Ftracker.openbittorrent.com%3A80&amp;tr=udp%3A%2F%2Fopen.demonii.com%3A1337&amp;tr=udp%3A%2F%2Ftracker.coppersurfer.tk%3A6969&amp;tr=udp%3A%2F%2Fexodus.desync.com%3A6969","seeders":2,"leechers":1,"uploader":"Klambake","files":-1,"time":1305623639,"description":"With: John Wayne, Richard Widmark and Laurence Harvey\n\n1836. De rebellen in Texas ijveren voor een afscheiding van Mexico en willen een eigen republiek. De Mexicaanse generaal Santa Anna laat dit niet zomaar gebeuren en trekt met zijn troepen ten strijde tegen de opstandelingen. De Amerikaanse generaal Sam Houston is helemaal niet klaar voor de strijd, want hij heeft zelfs nog geen leger samengesteld. Hij vat daarom het plan op het Mexicaanse leger zolang mogelijk vast te houden in San Antonio. Houston kan rekenen op de hulp van James Bowie en William Travis om het de Mexicanen zo moeilijk mogelijk te maken...\n\nIn 1836 General Santa Anna and the Mexican army is sweeping across Texas. To be able to stop him, General Sam Houston needs time to get his main force into shape. To buy that time he orders Colonel William Travis to defend a small mission on the Mexicans' route at all costs. Travis' small troop is swelled by groups accompanying Jim Bowie and Davy Crockett, but as the situation becomes ever more desperate Travis makes it clear there will be no shame if they leave while they can.\n\nGeneral:\n\nComplete name                    : The Alamo\\The Alamo.avi\nFormat                           : AVI\nFormat/Info                      : Audio Video Interleave\nFile size                        : 2.06 GiB\nDuration                         : 2h 35mn\nOverall bit rate                 : 1 899 Kbps\n\nVideo:\n\nFormat                           : MPEG-4 Visual\nFormat profile                   : Simple@L3\nFormat settings, BVOP            : No\nFormat settings, QPel            : No\nFormat settings, GMC             : No warppoints\nFormat settings, Matrix          : Default (H.263)\nCodec ID                         : XVID\nCodec ID/Hint                    : XviD\nDuration                         : 2h 35mn\nBit rate                         : 1 696 Kbps\nWidth                            : 720 pixels\nHeight                           : 328 pixels\nDisplay aspect ratio             : 2.2:1\nFrame rate                       : 25.000 fps\nColor space                      : YUV\nChroma subsampling               : 4:2:0\nBit depth                        : 8 bits\nScan type                        : Progressive\nBits/(Pixel*Frame)               : 0.287\nStream size                      : 1.84 GiB (89%)\nWriting library                  : XviD 1.1.2 (UTC 2006-11-01)\n\nAudio:\n\nFormat                           : AC-3\nFormat/Info                      : Audio Coding 3\nFormat profile                   : Dolby Digital\nMode extension                   : CM (complete main)\nCodec ID                         : 2000\nDuration                         : 2h 35mn\nBit rate mode                    : Constant\nBit rate                         : 192 Kbps\nChannel(s)                       : 2 channels\nChannel positions                : Front: L R\nSampling rate                    : 48.0 KHz\nBit depth                        : 16 bits\nStream size                      : 213 MiB (10%)\nAlignment                        : Aligned on interleaves\nInterleave, duration             : 32 ms (0.80 video frame)\n\n\n\n","torrent":{"xt":"urn:btih:34d51f0bb6219dfffd9c5a1f5c8fb4aa62f4dd91","amp;dn":"The+Alamo+1960+DVDrip+English+Klam","amp;tr":["udp%3A%2F%2Ftracker.openbittorrent.com%3A80","udp%3A%2F%2Fopen.demonii.com%3A1337","udp%3A%2F%2Ftracker.coppersurfer.tk%3A6969","udp%3A%2F%2Fexodus.desync.com%3A6969"],"infoHash":"34d51f0bb6219dfffd9c5a1f5c8fb4aa62f4dd91","infoHashBuffer":{"type":"Buffer","data":[52,213,31,11,182,33,157,255,253,156,90,31,92,143,180,170,98,244,221,145]},"announce":[],"urlList":[]}}